<?xml version="1.0" encoding="UTF-8" standalone="no"?> <!-- Created with Vectornator for iOS (http://vectornator.io/) --><!DOCTYPE svg PUBLIC "-//W3C//DTD SVG 1.1//EN" "http://www.w3.org/Graphics/SVG/1.1/DTD/svg11.dtd">
<svg style="fill-rule:evenodd;clip-rule:evenodd;stroke-linecap:round;stroke-linejoin:round;" xmlns:vectornator="http://vectornator.io" xmlns:xlink="http://www.w3.org/1999/xlink" xmlns="http://www.w3.org/2000/svg" xml:space="preserve" version="1.1" viewBox="0 0 1028 1028">
<metadata>
<vectornator:setting key="DimensionsVisible" value="1"/>
<vectornator:setting key="SnapToGrid" value="0"/>
<vectornator:setting key="SnapToPoints" value="1"/>
<vectornator:setting key="GuidesVisible" value="1"/>
<vectornator:setting key="RulersVisible" value="1"/>
<vectornator:setting key="SnapToEdges" value="1"/>
<vectornator:setting key="DisplayWhiteBackground" value="1"/>
<vectornator:setting key="SnapToGuides" value="1"/>
<vectornator:setting key="GridSpacing" value="36"/>
<vectornator:setting key="Units" value="Pixels"/>
<vectornator:setting key="DynamicGuides" value="1"/>
<vectornator:setting key="New" value="1"/>
</metadata>
<defs/>
<g id="Слой 2" vectornator:layerName="Слой 2">
<path d="M1030.73+122.218C1031.11+124.185+1031.87+126.154+1033.09+127.743C1033.84+128.717+1033.82+125.227+1033.4+124.072C1032.97+122.883+1032.77+121.391+1031.73+120.67C1031.22+120.32+1030.61+121.615+1030.73+122.218Z" opacity="1" fill="#78aebc"/>
<path d="M1030.73+122.218C1030.73+122.218+950.651+147.722+956.223+85.9925C961.796+24.2635+959.432+19.5111+927.651+0C895.87-19.5111+1039.3+2.08201+1048.1-0.436545" opacity="1" fill="#78aebc"/>
<path d="M87.8415+545.23L144.64+537.29L141.077+490.234L167.205+482.71L182.215+529.059L223.63+524.531L232.256+552.561L191.815+567.534L196.068+593.864L165.236+604.961L152.834+568.957L106.215+576.926L87.8415+545.23Z" opacity="1" fill="#78aebc"/>
<path d="M844.921+554.209L854.72+578.607L925.227+556.892L916.117+533.011L844.921+554.209Z" opacity="1" fill="#3b4964"/>
</g>
<g id="Слой 1" vectornator:layerName="Слой 1">
<path d="M302.583+772.597L725.417+772.597C490.183+482.769+302.583+772.597+302.583+772.597Z" opacity="1" fill="#142037"/>
<path d="M368.449+506.634C368.449+430.888+433.614+369.484+514+369.484C594.386+369.484+659.551+430.888+659.551+506.634C659.551+582.38+594.386+643.785+514+643.785C433.614+643.785+368.449+582.38+368.449+506.634Z" opacity="1" fill="#142037"/>
<path d="M321.169+358.771L532.67+255.403L706.831+366.897L495.33+470.266L321.169+358.771Z" opacity="1" fill="#142037"/>
<path d="M696.382+366.384L706.831+366.384L706.831+526.528L696.382+526.528L696.382+391.477L696.382+366.384Z" opacity="1" fill="#142037"/>
<path d="M683.469+537.441C683.469+529.453+691.589+522.978+701.607+522.978C711.624+522.978+719.745+529.453+719.745+537.441C719.745+545.428+711.624+551.904+701.607+551.904C691.589+551.904+683.469+545.428+683.469+537.441Z" opacity="1" fill="#142037"/>
<path d="M692.743+1052.58C692.743+1052.58+682.542+939.269+810.582+930.906C938.622+922.543+929.548+843.978+929.548+843.978C929.548+843.978+946.111+727.068+1033.87+752.51C1121.64+777.953+1050.15+1031.75+1050.15+1031.75" opacity="1" fill="#3b4964"/>
<path d="M0+374.485C0+374.485+223.796+364.748+181.161+243.333C138.527+121.917+140.381+95.9653+263.65+92.2579C386.919+88.5506+373.017-21.7432+373.017-21.7432C373.017-21.7432-44.0602-50.4752-49.6213-50.4752" opacity="1" fill="#3b4964"/>
<path d="M754.452+1042.85C754.452+1042.85+765.196+968.938+879.708+946.325C994.219+923.712+994.76+886.142+984.935+860.94C975.109+835.737+972.409+766.435+1028+785.755C1083.59+805.075+1028+1028+1028+1028" opacity="1" fill="#c4dfe6"/>
<path d="M702.243+194.141C702.243+194.141+706.689+424.116+826.729+297.205C946.769+170.294+968.998+330.752+958.086+235.771C947.173+140.79+893.014+99.5638+890.589+94.3096C888.163+89.0553+731.567+43.0943+702.243+194.141Z" opacity="1" fill="#c4dfe6"/>
<path d="M0+833.233C0+833.233+210.818+867.081+165.362+974.341C119.905+1081.6+234.231+1084.27+243.002+1088.93C251.774+1093.59-52.5835+1075.9-52.5835+1075.9" opacity="1" fill="#c4dfe6"/>
<path d="M0+901.102C0+901.102+92.7649+892.182+77.3596+962.392C61.9544+1032.6+75.2094+1034.57+104.738+1038.68C134.266+1042.78-11.7831+1043.96-11.7831+1043.96" opacity="1" fill="#78aebc"/>
<path d="M302.583+772.597L725.417+772.597" opacity="1" fill="#78aebc"/>
</g>
</svg>
