<?xml version="1.0" encoding="UTF-8" standalone="no"?> <!-- Created with Vectornator for iOS (http://vectornator.io/) --><!DOCTYPE svg PUBLIC "-//W3C//DTD SVG 1.1//EN" "http://www.w3.org/Graphics/SVG/1.1/DTD/svg11.dtd">
<svg style="fill-rule:evenodd;clip-rule:evenodd;stroke-linecap:round;stroke-linejoin:round;" xmlns:vectornator="http://vectornator.io" xmlns:xlink="http://www.w3.org/1999/xlink" xmlns="http://www.w3.org/2000/svg" xml:space="preserve" version="1.1" viewBox="0 0 1028 1028">
<metadata>
<vectornator:setting key="DimensionsVisible" value="1"/>
<vectornator:setting key="SnapToGrid" value="0"/>
<vectornator:setting key="SnapToPoints" value="1"/>
<vectornator:setting key="GuidesVisible" value="1"/>
<vectornator:setting key="RulersVisible" value="1"/>
<vectornator:setting key="SnapToEdges" value="1"/>
<vectornator:setting key="DisplayWhiteBackground" value="1"/>
<vectornator:setting key="SnapToGuides" value="1"/>
<vectornator:setting key="GridSpacing" value="36"/>
<vectornator:setting key="Units" value="Pixels"/>
<vectornator:setting key="DynamicGuides" value="1"/>
<vectornator:setting key="New" value="1"/>
</metadata>
<defs/>
<g id="Слой 2" vectornator:layerName="Слой 2">
<path d="M1030.73+122.218C1031.11+124.185+1031.87+126.154+1033.09+127.743C1033.84+128.717+1033.82+125.227+1033.4+124.072C1032.97+122.883+1032.77+121.391+1031.73+120.67C1031.22+120.32+1030.61+121.615+1030.73+122.218Z" opacity="1" fill="#78aebc"/>
<path d="M1030.73+122.218C1030.73+122.218+950.651+147.722+956.223+85.9925C961.796+24.2635+959.432+19.5111+927.651+0C895.87-19.5111+1039.3+2.08201+1048.1-0.436545" opacity="1" fill="#78aebc"/>
<path d="M87.8415+545.23L144.64+537.29L141.077+490.234L167.205+482.71L182.215+529.059L223.63+524.531L232.256+552.561L191.815+567.534L196.068+593.864L165.236+604.961L152.834+568.957L106.215+576.926L87.8415+545.23Z" opacity="1" fill="#78aebc"/>
<path d="M844.921+554.209L854.72+578.607L925.227+556.892L916.117+533.011L844.921+554.209Z" opacity="1" fill="#3b4964"/>
<path d="M366.418+404.131L364.998+555.809C364.998+555.809+515.888+516.978+603.159+552.214L607.251+377.938L367.606+371.18L366.418+404.131Z" opacity="1" fill="#142037"/>
<path d="M273.005+377.853L488.665+263.642L692.55+339.139L511.334+423.41L273.005+377.853Z" opacity="1" fill="#142037"/>
<path stroke="#ffffff" stroke-width="1.2" d="M367.037+395.827C367.037+395.827+461.885+306.462+606.471+379.168" fill="none" stroke-linecap="round" opacity="1" stroke-linejoin="round"/>
<path d="M303.9+383.758L310.379+538.978L298.649+539.223L288.846+380.881" opacity="1" fill="#142037"/>
<path d="M291.988+531.267L303.306+536.188L317.085+528.56C317.085+528.56+327.911+553.411+306.997+559.316C286.083+565.221+291.988+531.267+291.988+531.267Z" opacity="1" fill="#142037"/>
<path d="M647.726+585.796L675.997+675.097C675.997+675.097+684.254+672.135+681.562+666.391C678.869+660.647+656.701+589.386+656.701+589.386C656.701+589.386+655.086+582.655+647.726+585.796Z" opacity="1" fill="#142037"/>
<path d="M658.682+590.425L682.525+665.83C682.525+665.83+690.084+663.534+687.757+658.664C685.43+653.795+666.759+593.631+666.759+593.631C666.759+593.631+665.43+587.959+658.682+590.425Z" opacity="1" fill="#142037"/>
<path d="M315.677+679.704L642.765+578.607L675.561+684.715L348.474+785.812L315.677+679.704Z" opacity="1" fill="#142037"/>
<path d="M342.533+777.451L314.227+688.161C314.227+688.161+305.971+691.126+308.666+696.869C311.361+702.612+333.557+773.865+333.557+773.865C333.557+773.865+335.175+780.595+342.533+777.451Z" opacity="1" fill="#142037"/>
<path d="M331.575+772.826L307.703+697.431C307.703+697.431+300.144+699.73+302.474+704.598C304.803+709.467+323.497+769.623+323.497+769.623C323.497+769.623+324.828+775.295+331.575+772.826Z" opacity="1" fill="#142037"/>
<path stroke="#ffffff" stroke-width="1.2" d="M478.666+702.61C478.666+685.703+492.553+671.997+509.685+671.997C526.816+671.997+540.704+685.703+540.704+702.61C540.704+719.518+526.816+733.224+509.685+733.224C492.553+733.224+478.666+719.518+478.666+702.61Z" fill="none" stroke-linecap="round" opacity="1" stroke-linejoin="round"/>
<path d="M518.227+733.224L535.636+727.963L518.227+733.224L497.115+796.295C497.115+796.295+480.616+784.068+468.507+789.942C456.398+795.817+496.094+739.128+496.094+739.128" opacity="1" fill="#142037"/>
<path d="M518.227+733.224L538.585+727.052L577.415+775.563C577.415+775.563+551.245+774.34+551.659+792.882" opacity="1" fill="#142037"/>
<path stroke="#ffffff" stroke-width="1.2" d="M528.219+678.06C528.219+678.06+512.948+637.542+521.2+616.18" fill="none" stroke-linecap="round" opacity="1" stroke-linejoin="round"/>
<path stroke="#ffffff" stroke-width="1.2" d="M478.902+698.811C478.902+698.811+481.379+651.727+450.473+638.041" fill="none" stroke-linecap="round" opacity="1" stroke-linejoin="round"/>
</g>
<g id="Слой 1" vectornator:layerName="Слой 1">
<path d="M692.743+1052.58C692.743+1052.58+682.542+939.269+810.582+930.906C938.622+922.543+929.548+843.978+929.548+843.978C929.548+843.978+946.111+727.068+1033.87+752.51C1121.64+777.953+1050.15+1031.75+1050.15+1031.75" opacity="1" fill="#3b4964"/>
<path d="M0+374.485C0+374.485+223.796+364.748+181.161+243.333C138.527+121.917+140.381+95.9653+263.65+92.2579C386.919+88.5506+373.017-21.7432+373.017-21.7432C373.017-21.7432-44.0602-50.4752-49.6213-50.4752" opacity="1" fill="#3b4964"/>
<path d="M754.452+1042.85C754.452+1042.85+765.196+968.938+879.708+946.325C994.219+923.712+994.76+886.142+984.935+860.94C975.109+835.737+972.409+766.435+1028+785.755C1083.59+805.075+1028+1028+1028+1028" opacity="1" fill="#c4dfe6"/>
<path d="M702.243+194.141C702.243+194.141+706.689+424.116+826.729+297.205C946.769+170.294+968.998+330.752+958.086+235.771C947.173+140.79+893.014+99.5638+890.589+94.3096C888.163+89.0553+731.567+43.0943+702.243+194.141Z" opacity="1" fill="#c4dfe6"/>
<path d="M0+833.233C0+833.233+210.818+867.081+165.362+974.341C119.905+1081.6+234.231+1084.27+243.002+1088.93C251.774+1093.59-52.5835+1075.9-52.5835+1075.9" opacity="1" fill="#c4dfe6"/>
<path d="M0+901.102C0+901.102+92.7649+892.182+77.3596+962.392C61.9544+1032.6+75.2094+1034.57+104.738+1038.68C134.266+1042.78-11.7831+1043.96-11.7831+1043.96" opacity="1" fill="#78aebc"/>
</g>
</svg>
